PathFileType	4	(X/Y/Z)	c:/Users/goper/Files/vsCode/490R/osim_files/C05/C05_Slow_05.trc
DataRate	CameraRate	NumFrames	NumMarkers	Units                	OrigDataRate	OrigDataStartFrame	OrigNumFrames
250.00	250.00	11	36	mm	250.0	1015	2705
                Frame#	Time	LPSIS			LASIS			LTH1			LTH2			LTH3			LTH4			LLFE			LMFE			LSH1			LSH2			LSH3			LSH4			LLMAL			LMMAL			LCAL			LMTP5			LTOE			LMTP1			RPSIS			RASIS			RTH1			RTH2			RTH3			RTH4			RLFE			RMFE			RSH1			RSH2			RSH3			RSH4			RLMAL			RMMAL			RCAL			RMTP1			RTOE			RMTP5		
		X1	Y1	Z1	X2	Y2	Z2	X3	Y3	Z3	X4	Y4	Z4	X5	Y5	Z5	X6	Y6	Z6	X7	Y7	Z7	X8	Y8	Z8	X9	Y9	Z9	X10	Y10	Z10	X11	Y11	Z11	X12	Y12	Z12	X13	Y13	Z13	X14	Y14	Z14	X15	Y15	Z15	X16	Y16	Z16	X17	Y17	Z17	X18	Y18	Z18	X19	Y19	Z19	X20	Y20	Z20	X21	Y21	Z21	X22	Y22	Z22	X23	Y23	Z23	X24	Y24	Z24	X25	Y25	Z25	X26	Y26	Z26	X27	Y27	Z27	X28	Y28	Z28	X29	Y29	Z29	X30	Y30	Z30	X31	Y31	Z31	X32	Y32	Z32	X33	Y33	Z33	X34	Y34	Z34	X35	Y35	Z35	X36	Y36	Z36

1015	4.05600	771.50122	1038.41797	327.43860	574.26624	1001.76086	388.79578	728.22028	697.38464	431.70938	727.39978	635.40948	420.05774	652.36865	693.11249	420.52020	661.69818	633.13470	411.24109	710.05188	528.03259	396.75192	721.78210	523.93134	278.56314	840.64966	370.36957	395.31604	844.95020	326.90112	388.23666	778.90668	355.43073	406.07190	793.19434	315.19217	395.28104	868.86554	102.02737	345.99509	841.45831	112.71652	263.10034	931.58588	78.04877	293.85849	738.16656	33.04611	378.94226	696.54401	54.33708	317.93576	0.00000	0.00000	0.00000	767.88562	1039.07202	219.44608	576.15820	1009.41809	159.15477	580.58185	658.43292	103.06164	544.43250	606.84045	114.85918	0.00000	0.00000	0.00000	487.53912	636.96252	105.64066	0.00000	0.00000	0.00000	461.51126	547.50171	126.34905	496.00931	381.51297	111.10077	478.02933	336.90549	113.15266	436.29062	395.79611	108.52809	427.04916	350.12720	111.97559	388.71680	113.70132	143.03032	360.26059	129.85739	225.17067	433.85809	63.69677	198.00232	218.79605	100.86713	199.33356	214.68938	131.30124	150.78682	257.21249	85.57754	93.15498
1016	4.06000	767.27515	1037.77551	326.98209	571.13873	1000.95490	388.67166	725.91724	697.47345	431.86984	725.17432	635.36896	420.05566	649.72998	692.65265	420.56360	659.37195	632.67407	411.21371	708.25043	527.86450	396.87680	719.95300	523.84314	278.50534	839.44800	370.62991	395.28497	843.95398	327.25177	388.19461	777.84772	355.44681	406.05331	792.27777	315.37225	395.43939	868.74042	102.29887	346.08670	841.16119	112.93822	263.11340	931.43146	78.44880	293.87009	738.12756	32.97715	378.92944	696.44110	54.24719	317.94687	0.00000	0.00000	0.00000	763.41650	1038.45605	219.04369	571.89081	1008.59631	159.29681	578.22308	657.20044	103.05469	542.22632	605.32611	114.44543	0.00000	0.00000	0.00000	485.23486	635.17249	104.67223	0.00000	0.00000	0.00000	458.38483	546.21655	125.67616	489.56155	379.74890	110.88091	471.13293	335.56241	112.94714	430.98932	395.43057	108.51015	420.72095	349.82651	111.91328	378.05060	113.95335	143.46695	350.43930	130.80209	225.64012	422.43268	63.09107	198.20328	208.30890	104.79561	200.30186	204.51082	135.22295	151.63295	246.03847	88.54458	93.89780
1017	4.06400	763.09082	1037.24597	326.60260	566.06982	1000.48840	388.85782	723.03320	697.18829	431.73578	722.77173	635.23889	420.00284	647.25330	692.30261	420.77240	657.06134	632.39752	411.20862	706.37708	527.67743	396.90369	718.03265	523.76862	278.44589	838.19366	370.92996	395.22891	842.91876	327.54547	388.20074	776.59918	355.51639	406.07129	791.24274	315.44336	395.43735	868.17816	102.43971	345.84180	840.78406	113.14743	263.10651	931.22638	78.81892	293.86902	738.05762	32.89096	378.93918	696.37402	54.18423	317.95297	0.00000	0.00000	0.00000	758.90088	1037.75146	218.70900	566.87213	1008.02881	159.07631	575.57788	656.08325	103.03905	539.91663	603.99927	113.86682	508.96353	688.77362	92.58783	482.83170	633.51227	103.57990	0.00000	0.00000	0.00000	455.51407	545.08215	125.31167	484.47034	378.57364	110.57274	464.83237	334.57349	112.79714	425.58032	394.99808	108.41344	414.51312	349.53299	111.85875	368.07901	114.44606	143.59863	340.90152	131.76479	226.08415	411.53647	62.66248	198.40634	198.17451	108.55404	201.36137	194.81319	138.96574	152.63867	235.08792	91.36234	94.86302
1018	4.06800	758.86322	1036.63684	326.16635	563.05023	999.57532	388.76062	720.38544	697.05426	431.72360	720.38690	635.13531	419.93585	644.68512	691.82446	420.91376	656.14825	632.34302	409.91400	704.43652	527.41254	396.89877	716.20300	523.71558	278.48624	836.97083	371.26248	395.22278	841.70306	327.83099	388.11749	775.63684	355.46265	406.08896	790.30646	315.66119	395.55368	867.89496	102.93594	345.97269	840.53351	113.38541	263.07220	930.79688	79.07981	293.80493	738.08295	32.87867	378.97888	696.26715	54.08105	317.97882	0.00000	0.00000	0.00000	754.42639	1037.08533	218.26944	562.23584	1007.25720	159.09938	572.85651	655.08704	102.92174	537.39740	602.71564	113.24609	506.24600	688.08972	90.61624	480.17200	631.92627	102.56632	0.00000	0.00000	0.00000	452.34216	543.98151	124.81617	479.40372	377.58258	110.28077	458.59985	333.50760	112.49886	420.22791	394.56918	108.24925	408.47903	349.27545	111.75932	358.30725	114.90495	144.07430	331.76895	132.75551	226.63008	401.03424	62.26566	198.81911	188.59569	112.15710	202.62384	185.61992	142.47243	153.82603	224.64519	93.98444	95.92739
1019	4.07200	754.66724	1036.04797	325.81213	562.81427	998.14825	389.17484	717.65875	696.91907	431.67853	717.98077	635.00824	419.92639	641.92084	691.26221	421.04651	652.13531	631.46722	411.14941	702.41803	527.18665	396.92566	713.96271	523.40613	278.33780	835.58807	371.53555	395.14322	840.61462	328.12369	388.11865	774.12952	355.46832	406.02707	789.09558	315.56442	395.43961	867.61810	103.21391	345.98441	840.26044	113.61820	263.07352	930.60010	79.48209	293.83466	738.02887	32.79402	378.99860	696.22186	54.00913	318.00620	0.00000	0.00000	0.00000	749.90533	1036.41846	217.92206	557.51691	1006.48602	159.10722	569.78802	654.20471	102.72678	534.59125	601.55060	112.42193	502.99997	686.89746	90.23753	477.37436	630.61108	101.49821	0.00000	0.00000	0.00000	448.99200	542.96558	124.30880	473.35635	375.84097	109.78741	452.53647	332.51114	112.22234	415.00555	394.10919	108.08131	402.59326	348.94693	111.68516	348.96286	115.35600	144.49138	323.14114	133.77992	227.28557	391.04080	62.01336	199.18442	179.58760	115.48580	203.98451	176.60455	145.66396	155.06232	214.65785	96.48799	97.13508
1020	4.07600	750.39948	1035.42212	325.41562	553.92267	998.48291	389.12729	714.96741	696.75360	431.66306	715.49200	634.82184	419.81104	639.13184	690.73688	421.10486	649.88379	631.00323	411.45465	700.26697	526.88715	396.93137	711.82062	523.17877	278.26785	834.15552	371.78671	395.07022	839.38251	328.43155	388.04907	772.81354	355.47787	406.02359	788.01404	315.68716	395.53235	867.35645	103.52465	346.03604	839.97034	113.82611	263.07828	930.45087	79.89540	293.82669	738.47369	33.19837	379.26392	696.14581	53.91476	318.05157	0.00000	0.00000	0.00000	745.33429	1035.71045	217.53378	552.86023	1005.69690	159.14873	566.54858	653.37274	102.39436	531.50415	600.52148	111.57914	499.51855	685.79498	89.92040	474.43494	629.43512	100.57072	0.00000	0.00000	0.00000	445.56897	541.95142	123.79153	468.07846	374.61368	109.35117	446.66434	331.47791	111.90628	409.96753	393.60571	107.87640	396.96222	348.64157	111.50751	340.03055	115.81645	145.06146	314.77979	134.64183	227.88515	381.57053	61.93934	199.61664	170.96031	118.53778	205.43619	168.15224	148.52846	156.51289	205.12796	98.72215	98.40794
1021	4.08000	746.22241	1034.88318	325.05182	554.66016	996.84674	389.36011	712.14709	696.56329	431.59235	712.89716	634.65027	419.74213	636.30353	690.17480	421.15048	647.22516	630.59125	411.45566	698.03937	526.51007	396.93027	709.67358	523.04840	278.24796	832.67816	372.07626	395.01035	838.06708	328.72983	388.01669	771.48633	355.49896	405.96603	786.87939	315.75836	395.92728	867.10089	103.89061	346.03128	839.69012	114.07176	263.07034	930.27081	80.34118	293.79221	738.00928	32.69913	379.02603	696.02826	53.82933	318.09598	0.00000	0.00000	0.00000	740.81897	1035.04907	217.16048	548.13812	1004.83289	159.18823	562.99304	652.50159	101.93956	529.36115	599.80908	109.92758	495.92688	684.84381	89.48318	470.85715	628.28876	99.69502	0.00000	0.00000	0.00000	442.04556	540.89905	123.32531	462.96008	373.35431	108.85460	441.00311	330.49777	111.58863	405.02240	393.06372	107.63154	391.83279	348.25003	111.15637	331.47333	116.12850	145.64371	306.83734	135.55836	228.58772	372.59680	61.80316	200.13181	162.81543	121.25040	206.96870	160.16920	151.10703	158.09038	196.11852	100.71175	99.79485
1022	4.08400	741.97308	1034.23010	324.60623	550.55878	996.20380	389.49243	709.20959	696.27026	431.48483	710.20465	634.39703	419.64557	633.40259	689.65356	421.24988	644.50305	630.06738	411.54208	695.87756	526.28253	396.99570	707.19983	522.61865	278.09854	831.08118	372.33182	394.91815	836.74371	329.04257	387.92953	769.90637	355.45871	405.93707	785.56024	315.77444	395.88312	866.81573	104.26626	346.04562	839.30463	114.29931	263.06750	930.05774	80.82018	293.80948	737.97778	32.66762	379.08337	695.92188	53.77127	318.13757	0.00000	0.00000	0.00000	736.27222	1034.36523	216.73032	543.36096	1004.00592	159.24901	559.14459	651.74127	101.41319	525.21136	598.61285	109.52670	491.89301	683.90643	89.03236	467.09058	627.26648	99.07864	0.00000	0.00000	0.00000	437.52350	539.65363	122.61816	458.06540	372.16934	108.41827	435.53735	329.53909	111.33243	400.27032	392.48892	107.39059	386.18579	347.67688	111.33441	323.43454	116.42060	146.20912	299.47702	136.35854	229.27383	364.10583	61.70018	200.61273	155.31052	123.68916	209.07602	152.52049	153.38614	159.37422	187.59889	102.32035	101.25861
1023	4.08800	737.71765	1033.68384	324.21109	541.62238	996.34949	389.44272	706.23590	696.01929	431.36078	707.40692	634.13141	419.52011	630.42596	689.17200	421.40875	641.77460	629.55316	411.76752	693.37415	525.83289	396.90472	704.88379	522.47192	278.02634	829.48090	372.62299	394.84644	835.38159	329.37973	387.85870	768.41888	355.43393	405.91251	784.03778	315.78403	395.34299	866.51990	104.59116	346.08536	838.96039	114.60434	263.06149	930.16150	81.51141	293.80225	737.98529	32.66543	379.11383	695.84125	53.69548	318.16061	0.00000	0.00000	0.00000	731.71741	1033.73523	216.27913	539.04541	1003.08740	159.44585	555.03241	650.96899	100.73353	521.28369	597.81091	108.81809	487.62415	683.05182	88.50805	462.99109	626.31787	98.61558	0.00000	0.00000	0.00000	434.66370	538.79449	122.30782	452.67978	370.60992	108.01849	430.25864	328.54385	111.10768	395.64410	391.88840	107.14352	381.19553	347.17139	111.24683	315.76254	116.55079	146.79430	292.48703	137.14233	229.95813	356.20959	61.58324	201.08737	148.20564	125.76435	210.38156	145.34219	155.31615	160.87697	179.63951	103.61411	102.71176
1024	4.09200	733.39020	1033.02637	323.70724	537.34436	995.55878	389.52203	703.23041	695.70660	431.25159	704.62567	633.83807	419.36716	627.31293	688.46240	421.38217	638.85535	629.10699	411.75391	690.97693	525.53156	396.90518	702.12268	521.95581	277.85593	827.67920	372.87375	394.73279	833.82245	329.67648	387.76025	766.70361	355.36279	405.77914	782.76892	315.89240	395.83719	866.28192	105.02180	346.17148	838.55402	114.85976	263.06918	929.92950	81.96913	293.79361	737.93518	32.62511	379.14737	695.75409	53.57307	318.19662	0.00000	0.00000	0.00000	727.12659	1033.01880	215.84239	533.29584	1002.35345	159.75484	550.72235	650.18243	99.95004	517.00555	597.01520	108.27161	483.32019	682.28473	87.96732	458.72263	625.47894	98.26080	0.00000	0.00000	0.00000	431.31839	537.81683	121.75807	448.26010	369.71826	107.79774	425.21616	327.58911	110.93475	391.05759	391.19049	106.96105	376.18585	346.62814	111.14908	308.58466	116.60473	147.33099	285.91187	137.64653	230.54662	348.97391	61.49216	201.49538	141.55350	127.48275	211.74379	138.73944	156.84978	162.35529	172.12254	104.59837	104.09150
1025	4.09600	729.08386	1032.44006	323.28336	534.38257	994.43658	389.38422	700.16656	695.45837	431.08942	701.68835	633.52222	419.21103	624.33990	687.89563	421.47751	636.10883	628.50409	411.82404	688.24902	525.02948	396.74704	699.42834	521.61017	277.66443	825.86395	373.37433	394.35910	832.24481	329.98849	387.63724	765.09479	355.33878	405.72943	781.05176	315.88470	395.17068	865.86432	105.35280	346.13391	838.23364	115.14662	263.11569	929.64240	82.47251	293.76474	737.89307	32.58849	379.16580	695.63428	53.49272	318.22629	0.00000	0.00000	0.00000	722.54675	1032.40112	215.35771	529.28363	1001.43683	159.35393	546.06158	649.49756	99.11440	512.55127	596.30310	107.73456	478.46426	681.42493	87.38721	453.08682	624.43738	98.63081	0.00000	0.00000	0.00000	427.60532	536.81439	121.39835	443.68268	368.67599	107.57040	419.91736	326.46368	111.03145	386.56277	390.49268	106.74722	371.65790	346.06058	110.80060	302.20764	116.62181	147.75972	279.92410	138.00221	231.08884	342.16812	61.36685	201.87105	135.45444	128.86642	213.18472	132.47722	158.01973	163.71277	164.95015	105.23277	105.50017
